<svg width="800" height="800" viewBox="0 0 800 800" fill="none" xmlns="http://www.w3.org/2000/svg">
<path d="M783.217 0H16.7833C7.51891 0 0 7.51891 0 16.7833V783.208C0 792.473 7.51891 799.992 16.7833 799.992H423.988V532.676H338.049C330.622 532.676 324.605 526.659 324.605 519.233V410.863C324.605 403.436 330.622 397.411 338.049 397.411H423.996V322.617C423.996 224.065 486.052 160.389 582.086 160.389L667.58 160.524C674.99 160.532 681.007 166.549 681.007 173.967V274.591C681.007 282.018 674.99 288.035 667.563 288.035L609.971 288.06C570.287 288.06 563.02 303.534 563.02 334.004V397.411H663.544C667.11 397.411 670.525 398.829 673.051 401.355C675.569 403.881 676.987 407.297 676.987 410.863L676.953 519.241C676.953 526.668 670.937 532.693 663.51 532.693H563.012V800H783.208C792.473 800 799.992 792.481 799.992 783.217V16.7833C800 7.51052 792.489 0 783.217 0Z" fill="white"/>
</svg>
